{
  "accessors": [
    {
      "bufferView": 2,
      "componentType": 5126,
      "count": 65532,
      "max": [
        9.2922992706298828,
        25.674171447753906,
        6.5941929817199707
      ],
      "min": [
        5.0357742309570312,
        18.957277297973633,
        -4.6527857780456543
      ],
      "type": "VEC3"
    },
    {
      "bufferView": 2,
      "byteOffset": 786384,
      "componentType": 5126,
      "count": 65532,
      "max": [
        0.99992877244949341,
        0.9999622106552124,
        0.99998754262924194
      ],
      "min": [
        -0.99997049570083618,
        -0.99997133016586304,
        -0.99926400184631348
      ],
      "type": "VEC3"
    },
    {
      "bufferView": 1,
      "componentType": 5126,
      "count": 65532,
      "max": [
        0.99646598100662231,
        1.00028395652771
      ],
      "min": [
        -0.00024199999461416155,
        0.0038189999759197235
      ],
      "type": "VEC2"
    },
    {
      "bufferView": 0,
      "componentType": 5125,
      "count": 302517,
      "max": [
        65531
      ],
      "min": [
        0
      ],
      "type": "SCALAR"
    },
    {
      "bufferView": 2,
      "byteOffset": 1572768,
      "componentType": 5126,
      "count": 65532,
      "max": [
        9.1542854309082031,
        24.987636566162109,
        4.4999217987060547
      ],
      "min": [
        1.0942480564117432,
        19.095680236816406,
        -2.6356770992279053
      ],
      "type": "VEC3"
    },
    {
      "bufferView": 2,
      "byteOffset": 2359152,
      "componentType": 5126,
      "count": 65532,
      "max": [
        0.99998199939727783,
        0.99992954730987549,
        0.99999511241912842
      ],
      "min": [
        -0.99999433755874634,
        -0.99997049570083618,
        -0.99995386600494385
      ],
      "type": "VEC3"
    },
    {
      "bufferView": 1,
      "byteOffset": 524256,
      "componentType": 5126,
      "count": 65532,
      "max": [
        0.99419099092483521,
        0.99936002492904663
      ],
      "min": [
        0.00026100000832229853,
        0.0068290000781416893
      ],
      "type": "VEC2"
    },
    {
      "bufferView": 0,
      "byteOffset": 1210068,
      "componentType": 5125,
      "count": 316623,
      "max": [
        65531
      ],
      "min": [
        0
      ],
      "type": "SCALAR"
    },
    {
      "bufferView": 2,
      "byteOffset": 3145536,
      "componentType": 5126,
      "count": 65532,
      "max": [
        7.980463981628418,
        25.389438629150391,
        1.5703049898147583
      ],
      "min": [
        0.96964997053146362,
        20.369695663452148,
        -4.5723252296447754
      ],
      "type": "VEC3"
    },
    {
      "bufferView": 2,
      "byteOffset": 3931920,
      "componentType": 5126,
      "count": 65532,
      "max": [
        0.9999854564666748,
        0.99996477365493774,
        0.9999505877494812
      ],
      "min": [
        -0.99997538328170776,
        -0.99987524747848511,
        -0.99994313716888428
      ],
      "type": "VEC3"
    },
    {
      "bufferView": 1,
      "byteOffset": 1048512,
      "componentType": 5126,
      "count": 65532,
      "max": [
        0.99453699588775635,
        0.99927699565887451
      ],
      "min": [
        0.07749900221824646,
        0.005231000017374754
      ],
      "type": "VEC2"
    },
    {
      "bufferView": 0,
      "byteOffset": 2476560,
      "componentType": 5125,
      "count": 343203,
      "max": [
        65531
      ],
      "min": [
        0
      ],
      "type": "SCALAR"
    },
    {
      "bufferView": 2,
      "byteOffset": 4718304,
      "componentType": 5126,
      "count": 55833,
      "max": [
        8.3063945770263672,
        26.139289855957031,
        -1.2619960308074951
      ],
      "min": [
        2.9523530006408691,
        21.571392059326172,
        -5.1953401565551758
      ],
      "type": "VEC3"
    },
    {
      "bufferView": 2,
      "byteOffset": 5388300,
      "componentType": 5126,
      "count": 55833,
      "max": [
        0.99986833333969116,
        0.99996477365493774,
        0.99999457597732544
      ],
      "min": [
        -0.99999302625656128,
        -0.99995452165603638,
        -0.99999451637268066
      ],
      "type": "VEC3"
    },
    {
      "bufferView": 1,
      "byteOffset": 1572768,
      "componentType": 5126,
      "count": 55833,
      "max": [
        0.99453699588775635,
        0.9993320107460022
      ],
      "min": [
        0.0018279999494552612,
        0.002449000021442771
      ],
      "type": "VEC2"
    },
    {
      "bufferView": 0,
      "byteOffset": 3849372,
      "componentType": 5125,
      "count": 289539,
      "max": [
        55832
      ],
      "min": [
        0
      ],
      "type": "SCALAR"
    }
  ],
  "asset": {
    "extras": {
      "author": "Limerick3D (https://sketchfab.com/Limerick3D)",
      "license": "CC0-1.0 (http://creativecommons.org/publicdomain/zero/1.0/)",
      "source": "https://sketchfab.com/3d-models/hunt-museum-hood-for-a-hawk-hcm137-f2da0e9ff0d0414082221046825c1d77",
      "title": "Hunt Museum - Hood for a Hawk - HCM137"
    },
    "generator": "Sketchfab-7.80.0",
    "version": "2.0"
  },
  "bufferViews": [
    {
      "buffer": 0,
      "byteLength": 5007528,
      "byteOffset": 0,
      "name": "floatBufferViews",
      "target": 34963
    },
    {
      "buffer": 0,
      "byteLength": 2019432,
      "byteOffset": 5007528,
      "byteStride": 8,
      "name": "floatBufferViews",
      "target": 34962
    },
    {
      "buffer": 0,
      "byteLength": 6058296,
      "byteOffset": 7026960,
      "byteStride": 12,
      "name": "floatBufferViews",
      "target": 34962
    }
  ],
  "buffers": [
    {
      "byteLength": 13085256,
      "uri": "scene.bin"
    }
  ],
  "images": [
    {
      "uri": "textures/HCM137_baseColor.jpeg"
    }
  ],
  "materials": [
    {
      "doubleSided": true,
      "name": "HCM137",
      "pbrMetallicRoughness": {
        "baseColorFactor": [
          1,
          1,
          1,
          1
        ],
        "baseColorTexture": {
          "index": 0,
          "texCoord": 0
        },
        "metallicFactor": 0,
        "roughnessFactor": 0
      }
    }
  ],
  "meshes": [
    {
      "primitives": [
        {
          "attributes": {
            "NORMAL": 1,
            "POSITION": 0,
            "TEXCOORD_0": 2
          },
          "indices": 3,
          "material": 0,
          "mode": 4
        }
      ]
    },
    {
      "primitives": [
        {
          "attributes": {
            "NORMAL": 5,
            "POSITION": 4,
            "TEXCOORD_0": 6
          },
          "indices": 7,
          "material": 0,
          "mode": 4
        }
      ]
    },
    {
      "primitives": [
        {
          "attributes": {
            "NORMAL": 9,
            "POSITION": 8,
            "TEXCOORD_0": 10
          },
          "indices": 11,
          "material": 0,
          "mode": 4
        }
      ]
    },
    {
      "primitives": [
        {
          "attributes": {
            "NORMAL": 13,
            "POSITION": 12,
            "TEXCOORD_0": 14
          },
          "indices": 15,
          "material": 0,
          "mode": 4
        }
      ]
    }
  ],
  "nodes": [
    {
      "children": [
        1
      ],
      "name": "RootNode (gltf orientation matrix)",
      "rotation": [
        -0.70710678118654746,
        -0,
        -0,
        0.70710678118654757
      ]
    },
    {
      "children": [
        2
      ],
      "matrix": [
        -0.53269016742706299,
        0.84617108106613159,
        0.015351730398833752,
        0,
        -0.79709082841873169,
        -0.49553167819976807,
        -0.3451007604598999,
        0,
        -0.28440698981285095,
        -0.19606851041316986,
        0.93844008445739746,
        0,
        26.036159515380859,
        29.517152786254883,
        7.745722770690918,
        1
      ],
      "name": "RootNode (model correction matrix)"
    },
    {
      "children": [
        3,
        4,
        5,
        6
      ],
      "name": "HCM137.obj.cleaner.materialmerger.gles"
    },
    {
      "mesh": 0,
      "name": ""
    },
    {
      "mesh": 1,
      "name": ""
    },
    {
      "mesh": 2,
      "name": ""
    },
    {
      "mesh": 3,
      "name": ""
    }
  ],
  "samplers": [
    {
      "magFilter": 9729,
      "minFilter": 9987,
      "wrapS": 10497,
      "wrapT": 10497
    }
  ],
  "scene": 0,
  "scenes": [
    {
      "name": "OSG_Scene",
      "nodes": [
        0
      ]
    }
  ],
  "textures": [
    {
      "sampler": 0,
      "source": 0
    }
  ]
}

